<svg viewBox="0 0 800 690" xmlns="http://www.w3.org/2000/svg" preserveAspectRatio="meet" role="img" aria-label="An empty chalkboard hanging by a cord"><defs><filter id="innerShadow"><feOffset dx="1" dy="1"></feOffset><feGaussianBlur stdDeviation="2" result="offset-blur"></feGaussianBlur><feComposite operator="out" in="SourceGraphic" in2="offset-blur" result="inverse"></feComposite><feFlood flood-color="black" flood-opacity="0.3" result="color"></feFlood><feComposite operator="in" in="color" in2="inverse" result="shadow"></feComposite><feComposite operator="over" in="shadow" in2="SourceGraphic"></feComposite></filter></defs><circle cx="400" cy="20" r="12" fill="#5D4037"></circle><path d="M 150,150 L 400,20 L 650,150" fill="none" stroke="#8D6E63" stroke-width="14" stroke-linecap="round" stroke-linejoin="round"></path><g transform="translate(0, 150)"><g fill="#DEB887" stroke="#C19A6B" stroke-width="2"><rect x="0" y="0" width="800" height="30"></rect><rect x="0" y="510" width="800" height="30"></rect><rect x="0" y="0" width="30" height="540"></rect><rect x="770" y="0" width="30" height="540"></rect></g><g stroke="#C19A6B" stroke-width="2"><line x1="0" y1="0" x2="30" y2="30"></line><line x1="800" y1="0" x2="770" y2="30"></line><line x1="0" y1="540" x2="30" y2="510"></line><line x1="800" y1="540" x2="770" y2="510"></line></g><circle cx="150" cy="0" r="10" fill="#8D6E63"></circle><circle cx="650" cy="0" r="10" fill="#8D6E63"></circle><rect x="30" y="30" width="740" height="480" fill="#2a4633ff"></rect><rect x="30" y="30" width="740" height="480" fill="none" stroke="rgba(0,0,0,0.3)" stroke-width="4"></rect><g transform="translate(0, 510)"><path d="M 20,0 L 780,0 L 790,30 L 10,30 Z" fill="#D2B48C" stroke="#C19A6B" stroke-width="2"></path><rect x="10" y="30" width="780" height="10" fill="#C19A6B"></rect></g><rect x="440" y="505" width="100" height="16" rx="4" fill="#F5F5F5" transform="rotate(3, 490, 513)" opacity="0.95" stroke="#DDD" stroke-width="1"></rect><g transform="translate(220, 500) rotate(-2)"><rect x="0" y="14" width="140" height="22" fill="#333" rx="2"></rect><rect x="10" y="0" width="120" height="14" fill="#DEB887" rx="2" stroke="#C19A6B" stroke-width="2"></rect></g></g></svg>